<?xml version="1.0" encoding="iso-8859-1"?>
<!-- Generator: Adobe Illustrator 17.1.0, SVG Export Plug-In . SVG Version: 6.00 Build 0)  -->
<!DOCTYPE svg PUBLIC "-//W3C//DTD SVG 1.1//EN" "http://www.w3.org/Graphics/SVG/1.1/DTD/svg11.dtd">
<svg version="1.1" id="Capa_1" xmlns="http://www.w3.org/2000/svg" xmlns:xlink="http://www.w3.org/1999/xlink" x="0px" y="0px"
	 viewBox="0 0 291.088 291.088" style="enable-background:new 0 0 291.088 291.088;" xml:space="preserve">
<path d="M238.601,139.507c-1.224,0-2.434,0.057-3.637,0.14L202.07,51.486c-1.094-2.933-3.896-4.878-7.026-4.878h-33.5
	c-4.143,0-7.5,3.357-7.5,7.5s3.357,7.5,7.5,7.5h28.293l12.473,33H87.142l-5.247-8h9.65c4.143,0,7.5-3.357,7.5-7.5
	s-3.357-7.5-7.5-7.5H54.211v-17c0-4.143-3.357-7.5-7.5-7.5s-7.5,3.357-7.5,7.5v24.5c0,4.143,3.69,7.5,7.833,7.5h17.181l8.052,12.935
	c-0.121,0.277-0.243,0.553-0.331,0.848l-11.849,39.674c-2.485-0.363-5.024-0.558-7.609-0.558C23.546,139.507,0,163.053,0,191.996
	c0,28.941,23.546,52.285,52.488,52.285c26.216,0,48.004-18.673,51.875-44.673h22.805c2.6,4,6.739,5.953,11.409,5.953
	c7.854,0,14.245-6.29,14.245-14.145c0-0.595-0.048-1.127-0.119-1.702l57.539-73.439l9.911,26.576
	c-19.867,7.484-34.041,26.687-34.041,49.139c0,28.941,23.546,52.49,52.487,52.49s52.487-23.544,52.487-52.486
	C291.088,163.052,267.542,139.507,238.601,139.507z M196.094,109.608l-53.189,68.126c-1.366-0.437-2.819-0.569-4.327-0.569
	c-0.081,0-0.159-0.15-0.239-0.149l-41.86-67.408H196.094z M82.804,116.251l42.677,68.357h-20.983
	c-2.415-18-14.056-33.162-30.025-40.56L82.804,116.251z M82.298,184.608c-1.875-8-7.099-15.026-14.166-19.233l1.987-6.754
	c9.835,5.265,17.055,14.987,19.194,25.987H82.298z M52.488,229.281C31.817,229.281,15,212.566,15,191.895
	s16.817-37.438,37.488-37.438c1.096,0,2.178,0.083,3.251,0.175l-1.994,6.691c-0.38-0.014-0.76-0.023-1.144-0.023
	c-16.797,0-30.463,13.668-30.463,30.465s13.666,30.262,30.463,30.262c13.94,0,25.714-9.419,29.319-22.419h7.184
	C85.422,216.608,70.407,229.281,52.488,229.281z M238.601,229.483c-20.671,0-37.487-16.816-37.487-37.487
	c0-16.025,10.11-29.728,24.284-35.081l2.382,6.384c-11.469,4.374-19.641,15.482-19.641,28.469c0,16.797,13.666,30.463,30.463,30.463
	s30.462-13.666,30.462-30.463c0-15.243-11.254-27.905-25.889-30.118l-2.647-7.094c19.779,1.006,35.561,17.414,35.561,37.439
	C276.088,212.667,259.271,229.483,238.601,229.483z"/>
<g>
</g>
<g>
</g>
<g>
</g>
<g>
</g>
<g>
</g>
<g>
</g>
<g>
</g>
<g>
</g>
<g>
</g>
<g>
</g>
<g>
</g>
<g>
</g>
<g>
</g>
<g>
</g>
<g>
</g>
</svg>
